<svg xmlns="http://www.w3.org/2000/svg" width="1600" height="1120" viewBox="0 0 1600 1120" role="img" aria-label="QCC Toolkit Python-generated Fishbone Diagram" data-layout="fixed-lanes" data-architecture="four-layer" data-visible-causes-per-branch="2">
<title>QCC Toolkit Python-generated Fishbone Diagram</title>
<desc>Clean static SVG Fishbone diagram with short cause labels; uses a four-layer architecture; causes remain hypotheses until verified.</desc>
<style>
text{font-family:Arial,Helvetica,sans-serif;fill:#23313a}
.title{font-size:28px;font-weight:700}
.subtitle{font-size:14px;fill:#667178}
.branch{font-size:13px;font-weight:700;fill:#fff}
.cause{font-size:15px}
.small{font-size:12px;fill:#5f6b72}
.status{font-size:11px;font-weight:700;text-anchor:middle}
</style>
<rect x="0" y="0" width="1600" height="1120" fill="#ffffff"/>
<text x="72" y="64" class="title">Python-generated Fishbone Diagram</text>
<text x="72" y="92" class="subtitle">Clean static SVG: centered fishbone composition, short cause labels, and details in the verification plan.</text>
<line data-connector="spine" x1="150" y1="520" x2="1120" y2="520" stroke="#2f6f69" stroke-width="5" stroke-linecap="round"/>
<g data-effect="Packing label defects increased on Line 2" data-layer="1-effect"><rect x="1162" y="450" width="300" height="138" rx="14" fill="#e8f1ef" stroke="#2f6f69" stroke-width="2"/><text x="1188" y="492" font-size="18" font-weight="700"><tspan x="1188" dy="0">Packing label defects</tspan><tspan x="1188" dy="24">increased on Line 2</tspan></text></g>
<line data-connector="branch-top-Method" x1="290" y1="520" x2="400" y2="398" stroke="#6f8580" stroke-width="3" stroke-linecap="round"/>
<g data-label-box="100,326,136,34" data-layer="2-branch-category" class="branch-label"><rect x="100" y="326" width="136" height="34" rx="17" fill="#427e78" stroke="#427e78"/><text x="168" y="348" class="branch" text-anchor="middle">Method</text></g>
<g data-lane="top" data-branch="Method">
<line data-connector="cause-top-Method-1" x1="370" y1="153" x2="400" y2="398" stroke="#a9b7b2" stroke-width="2" stroke-dasharray="5 6" stroke-linecap="round"/>
<g data-box="100,120,260,66" data-layer="3-short-visible-cause" class="cause-box"><rect x="100" y="120" width="260" height="66" rx="12" fill="#f8f9f7" stroke="#c5ccc7"/><rect x="116" y="140" width="42" height="26" rx="13" fill="#eceff1" stroke="#737d82"/><text x="137.0" y="158" class="status status-badge suspected" fill="#394247">[S]</text><text x="168" y="147" class="cause"><tspan x="168" dy="0">Late label check</tspan></text></g>
<line data-connector="cause-top-Method-2" x1="370" y1="241" x2="400" y2="398" stroke="#a9b7b2" stroke-width="2" stroke-dasharray="5 6" stroke-linecap="round"/>
<g data-box="100,208,260,66" data-layer="3-short-visible-cause" class="cause-box"><rect x="100" y="208" width="260" height="66" rx="12" fill="#f8f9f7" stroke="#c5ccc7"/><rect x="116" y="228" width="52" height="26" rx="13" fill="#fff2cc" stroke="#d69f2e"/><text x="142.0" y="246" class="status status-badge selected" fill="#664b11">[V?]</text><text x="168" y="235" class="cause"><tspan x="168" dy="0">Missing check step</tspan></text></g>
</g>
<line data-connector="branch-bottom-Machine" x1="290" y1="520" x2="400" y2="622" stroke="#6f8580" stroke-width="3" stroke-linecap="round"/>
<g data-label-box="100,638,136,34" data-layer="2-branch-category" class="branch-label"><rect x="100" y="638" width="136" height="34" rx="17" fill="#427e78" stroke="#427e78"/><text x="168" y="660" class="branch" text-anchor="middle">Machine</text></g>
<g data-lane="bottom" data-branch="Machine">
<line data-connector="cause-bottom-Machine-1" x1="370" y1="753" x2="400" y2="622" stroke="#a9b7b2" stroke-width="2" stroke-dasharray="5 6" stroke-linecap="round"/>
<g data-box="100,720,260,66" data-layer="3-short-visible-cause" class="cause-box"><rect x="100" y="720" width="260" height="66" rx="12" fill="#f8f9f7" stroke="#c5ccc7"/><rect x="116" y="740" width="52" height="26" rx="13" fill="#fff2cc" stroke="#d69f2e"/><text x="142.0" y="758" class="status status-badge selected" fill="#664b11">[V?]</text><text x="168" y="747" class="cause"><tspan x="168" dy="0">Scanner warning hidden</tspan></text></g>
<line data-connector="cause-bottom-Machine-2" x1="370" y1="841" x2="400" y2="622" stroke="#a9b7b2" stroke-width="2" stroke-dasharray="5 6" stroke-linecap="round"/>
<g data-box="100,808,260,66" data-layer="3-short-visible-cause" class="cause-box"><rect x="100" y="808" width="260" height="66" rx="12" fill="#f8f9f7" stroke="#c5ccc7"/><rect x="116" y="828" width="42" height="26" rx="13" fill="#eceff1" stroke="#737d82"/><text x="137.0" y="846" class="status status-badge suspected" fill="#394247">[S]</text><text x="168" y="835" class="cause"><tspan x="168" dy="0">Printer alert unclear</tspan></text></g>
</g>
<line data-connector="branch-top-Material" x1="600" y1="520" x2="720" y2="398" stroke="#6f8580" stroke-width="3" stroke-linecap="round"/>
<g data-label-box="420,326,136,34" data-layer="2-branch-category" class="branch-label"><rect x="420" y="326" width="136" height="34" rx="17" fill="#427e78" stroke="#427e78"/><text x="488" y="348" class="branch" text-anchor="middle">Material</text></g>
<g data-lane="top" data-branch="Material">
<line data-connector="cause-top-Material-1" x1="690" y1="153" x2="720" y2="398" stroke="#a9b7b2" stroke-width="2" stroke-dasharray="5 6" stroke-linecap="round"/>
<g data-box="420,120,260,66" data-layer="3-short-visible-cause" class="cause-box"><rect x="420" y="120" width="260" height="66" rx="12" fill="#f8f9f7" stroke="#c5ccc7"/><rect x="436" y="140" width="42" height="26" rx="13" fill="#eceff1" stroke="#737d82"/><text x="457.0" y="158" class="status status-badge suspected" fill="#394247">[S]</text><text x="488" y="147" class="cause"><tspan x="488" dy="0">Similar roll colors</tspan></text></g>
<line data-connector="cause-top-Material-2" x1="690" y1="241" x2="720" y2="398" stroke="#a9b7b2" stroke-width="2" stroke-dasharray="5 6" stroke-linecap="round"/>
<g data-box="420,208,260,66" data-layer="3-short-visible-cause" class="cause-box"><rect x="420" y="208" width="260" height="66" rx="12" fill="#f8f9f7" stroke="#c5ccc7"/><rect x="436" y="228" width="42" height="26" rx="13" fill="#eceff1" stroke="#737d82"/><text x="457.0" y="246" class="status status-badge suspected" fill="#394247">[S]</text><text x="488" y="235" class="cause"><tspan x="488" dy="0">Mixed label stock</tspan></text></g>
</g>
<line data-connector="branch-bottom-People" x1="600" y1="520" x2="720" y2="622" stroke="#6f8580" stroke-width="3" stroke-linecap="round"/>
<g data-label-box="420,638,136,34" data-layer="2-branch-category" class="branch-label"><rect x="420" y="638" width="136" height="34" rx="17" fill="#427e78" stroke="#427e78"/><text x="488" y="660" class="branch" text-anchor="middle">People</text></g>
<g data-lane="bottom" data-branch="People">
<line data-connector="cause-bottom-People-1" x1="690" y1="753" x2="720" y2="622" stroke="#a9b7b2" stroke-width="2" stroke-dasharray="5 6" stroke-linecap="round"/>
<g data-box="420,720,260,66" data-layer="3-short-visible-cause" class="cause-box"><rect x="420" y="720" width="260" height="66" rx="12" fill="#f8f9f7" stroke="#c5ccc7"/><rect x="436" y="740" width="42" height="26" rx="13" fill="#eceff1" stroke="#737d82"/><text x="457.0" y="758" class="status status-badge suspected" fill="#394247">[S]</text><text x="488" y="747" class="cause"><tspan x="488" dy="0">New operators rotate</tspan><tspan x="488" dy="20">in</tspan></text></g>
<line data-connector="cause-bottom-People-2" x1="690" y1="841" x2="720" y2="622" stroke="#a9b7b2" stroke-width="2" stroke-dasharray="5 6" stroke-linecap="round"/>
<g data-box="420,808,260,66" data-layer="3-short-visible-cause" class="cause-box"><rect x="420" y="808" width="260" height="66" rx="12" fill="#f8f9f7" stroke="#c5ccc7"/><rect x="436" y="828" width="52" height="26" rx="13" fill="#fff2cc" stroke="#d69f2e"/><text x="462.0" y="846" class="status status-badge selected" fill="#664b11">[V?]</text><text x="488" y="835" class="cause"><tspan x="488" dy="0">Training check missing</tspan></text></g>
</g>
<line data-connector="branch-top-Environment" x1="910" y1="520" x2="1040" y2="398" stroke="#6f8580" stroke-width="3" stroke-linecap="round"/>
<g data-label-box="740,326,136,34" data-layer="2-branch-category" class="branch-label"><rect x="740" y="326" width="136" height="34" rx="17" fill="#427e78" stroke="#427e78"/><text x="808" y="348" class="branch" text-anchor="middle">Environment</text></g>
<g data-lane="top" data-branch="Environment">
<line data-connector="cause-top-Environment-1" x1="1010" y1="153" x2="1040" y2="398" stroke="#a9b7b2" stroke-width="2" stroke-dasharray="5 6" stroke-linecap="round"/>
<g data-box="740,120,260,66" data-layer="3-short-visible-cause" class="cause-box"><rect x="740" y="120" width="260" height="66" rx="12" fill="#f8f9f7" stroke="#c5ccc7"/><rect x="756" y="140" width="52" height="26" rx="13" fill="#fff2cc" stroke="#d69f2e"/><text x="782.0" y="158" class="status status-badge selected" fill="#664b11">[V?]</text><text x="808" y="147" class="cause"><tspan x="808" dy="0">Mixed SKU paperwork</tspan></text></g>
<line data-connector="cause-top-Environment-2" x1="1010" y1="241" x2="1040" y2="398" stroke="#a9b7b2" stroke-width="2" stroke-dasharray="5 6" stroke-linecap="round"/>
<g data-box="740,208,260,66" data-layer="3-short-visible-cause" class="cause-box"><rect x="740" y="208" width="260" height="66" rx="12" fill="#f8f9f7" stroke="#c5ccc7"/><rect x="756" y="228" width="42" height="26" rx="13" fill="#eceff1" stroke="#737d82"/><text x="777.0" y="246" class="status status-badge suspected" fill="#394247">[S]</text><text x="808" y="235" class="cause"><tspan x="808" dy="0">Crowded pack table</tspan></text></g>
</g>
<line data-connector="branch-bottom-Measurement" x1="910" y1="520" x2="1040" y2="622" stroke="#6f8580" stroke-width="3" stroke-linecap="round"/>
<g data-label-box="740,638,136,34" data-layer="2-branch-category" class="branch-label"><rect x="740" y="638" width="136" height="34" rx="17" fill="#427e78" stroke="#427e78"/><text x="808" y="660" class="branch" text-anchor="middle">Measurement</text></g>
<g data-lane="bottom" data-branch="Measurement">
<line data-connector="cause-bottom-Measurement-1" x1="1010" y1="753" x2="1040" y2="622" stroke="#a9b7b2" stroke-width="2" stroke-dasharray="5 6" stroke-linecap="round"/>
<g data-box="740,720,260,66" data-layer="3-short-visible-cause" class="cause-box"><rect x="740" y="720" width="260" height="66" rx="12" fill="#f8f9f7" stroke="#c5ccc7"/><rect x="756" y="740" width="42" height="26" rx="13" fill="#f6e6e2" stroke="#ad5b4d"/><text x="777.0" y="758" class="status status-badge rejected" fill="#75342a">[X]</text><text x="808" y="747" class="cause"><tspan x="808" dy="0">Audit form mismatch</tspan></text></g>
<line data-connector="cause-bottom-Measurement-2" x1="1010" y1="841" x2="1040" y2="622" stroke="#a9b7b2" stroke-width="2" stroke-dasharray="5 6" stroke-linecap="round"/>
<g data-box="740,808,260,66" data-layer="3-short-visible-cause" class="cause-box"><rect x="740" y="808" width="260" height="66" rx="12" fill="#f8f9f7" stroke="#c5ccc7"/><rect x="756" y="828" width="42" height="26" rx="13" fill="#eceff1" stroke="#737d82"/><text x="777.0" y="846" class="status status-badge suspected" fill="#394247">[S]</text><text x="808" y="835" class="cause"><tspan x="808" dy="0">Defect codes unclear</tspan></text></g>
</g>
<rect x="76" y="960" width="705" height="92" rx="12" fill="#f8f9f7" stroke="#c5ccc7"/>
<text x="98" y="988" font-size="15" font-weight="700">Status badges</text>
<rect x="100" y="1007" width="42" height="26" rx="13" fill="#eceff1" stroke="#737d82"/><text x="121.0" y="1025" class="status status-badge suspected" fill="#394247">[S]</text>
<text x="162" y="1025" class="small">Suspected</text>
<rect x="262" y="1007" width="52" height="26" rx="13" fill="#fff2cc" stroke="#d69f2e"/><text x="288.0" y="1025" class="status status-badge selected" fill="#664b11">[V?]</text>
<text x="324" y="1025" class="small">Selected for verification</text>
<rect x="424" y="1007" width="42" height="26" rx="13" fill="#e2f1e8" stroke="#4a9160"/><text x="445.0" y="1025" class="status status-badge verified" fill="#215c32">[V]</text>
<text x="486" y="1025" class="small">Verified</text>
<rect x="586" y="1007" width="42" height="26" rx="13" fill="#f6e6e2" stroke="#ad5b4d"/><text x="607.0" y="1025" class="status status-badge rejected" fill="#75342a">[X]</text>
<text x="648" y="1025" class="small">Rejected</text>
<g data-layer="4-verification-detail"><rect x="900" y="920" width="560" height="128" rx="12" fill="#f8f9f7" stroke="#c5ccc7"/><text x="922" y="950" font-size="15" font-weight="700">Four-layer architecture</text><text x="922" y="976" class="small">Layer 1: effect | Layer 2: branch category | Layer 3: short visible cause</text><text x="922" y="996" class="small">Layer 4: verification detail belongs in the plan/evidence fields.</text><text x="922" y="1016" class="small">Keep Layer 4 out of the diagram body.</text><text x="922" y="1036" class="small">Synthetic QCC demo; not project evidence.</text></g>
</svg>