<svg xmlns="http://www.w3.org/2000/svg" width="1440" height="810" viewBox="0 0 1440 810" role="img" aria-label="QCC Toolkit Python-generated Fishbone Diagram">
<title>QCC Toolkit Python-generated Fishbone Diagram</title>
<desc>Clean static SVG Fishbone diagram with short cause labels; causes remain hypotheses until verified.</desc>
<style>
text{font-family:Arial,Helvetica,sans-serif;fill:#23313a}
.title{font-size:28px;font-weight:700}
.subtitle{font-size:14px;fill:#667178}
.branch{font-size:13px;font-weight:700;fill:#fff}
.cause{font-size:15px}
.small{font-size:12px;fill:#5f6b72}
.status{font-size:11px;font-weight:700;text-anchor:middle}
</style>
<rect x="0" y="0" width="1440" height="810" fill="#ffffff"/>
<text x="72" y="64" class="title">Python-generated Fishbone Diagram</text>
<text x="72" y="92" class="subtitle">Clean static SVG: centered fishbone composition, short cause labels, and details in the verification plan.</text>
<line x1="150" y1="380" x2="1035" y2="380" stroke="#2f6f69" stroke-width="5" stroke-linecap="round"/>
<g data-effect="Packing label defects increased on Line 2"><rect x="1073" y="310" width="300" height="138" rx="14" fill="#e8f1ef" stroke="#2f6f69" stroke-width="2"/><text x="1099" y="352" font-size="18" font-weight="700"><tspan x="1099" dy="0">Packing label defects</tspan><tspan x="1099" dy="24">increased on Line 2</tspan></text></g>
<line x1="260" y1="380" x2="405" y2="205" stroke="#6f8580" stroke-width="3" stroke-linecap="round"/>
<rect x="337" y="163" width="136" height="34" rx="17" fill="#427e78" stroke="#427e78"/><text x="405" y="185" class="branch" text-anchor="middle">Method</text>
<rect x="411" y="204" width="42" height="26" rx="13" fill="#eceff1" stroke="#737d82"/><text x="432.0" y="222" class="status status-badge suspected" fill="#394247">[S]</text>
<text x="459" y="221" class="cause">Late label check</text>
<rect x="411" y="248" width="52" height="26" rx="13" fill="#fff2cc" stroke="#d69f2e"/><text x="437.0" y="266" class="status status-badge selected" fill="#664b11">[V?]</text>
<text x="459" y="265" class="cause">Missing check step</text>
<line x1="377" y1="380" x2="522" y2="555" stroke="#6f8580" stroke-width="3" stroke-linecap="round"/>
<rect x="454" y="613" width="136" height="34" rx="17" fill="#427e78" stroke="#427e78"/><text x="522" y="635" class="branch" text-anchor="middle">Machine</text>
<rect x="528" y="480" width="52" height="26" rx="13" fill="#fff2cc" stroke="#d69f2e"/><text x="554.0" y="498" class="status status-badge selected" fill="#664b11">[V?]</text>
<text x="576" y="497" class="cause">Scanner warning hidden</text>
<rect x="528" y="436" width="42" height="26" rx="13" fill="#eceff1" stroke="#737d82"/><text x="549.0" y="454" class="status status-badge suspected" fill="#394247">[S]</text>
<text x="576" y="453" class="cause">Printer alert unclear</text>
<line x1="495" y1="380" x2="640" y2="205" stroke="#6f8580" stroke-width="3" stroke-linecap="round"/>
<rect x="572" y="163" width="136" height="34" rx="17" fill="#427e78" stroke="#427e78"/><text x="640" y="185" class="branch" text-anchor="middle">Material</text>
<rect x="646" y="204" width="42" height="26" rx="13" fill="#eceff1" stroke="#737d82"/><text x="667.0" y="222" class="status status-badge suspected" fill="#394247">[S]</text>
<text x="694" y="221" class="cause">Similar roll colors</text>
<rect x="646" y="248" width="42" height="26" rx="13" fill="#eceff1" stroke="#737d82"/><text x="667.0" y="266" class="status status-badge suspected" fill="#394247">[S]</text>
<text x="694" y="265" class="cause">Mixed label stock</text>
<line x1="612" y1="380" x2="757" y2="555" stroke="#6f8580" stroke-width="3" stroke-linecap="round"/>
<rect x="689" y="613" width="136" height="34" rx="17" fill="#427e78" stroke="#427e78"/><text x="757" y="635" class="branch" text-anchor="middle">People</text>
<rect x="763" y="480" width="42" height="26" rx="13" fill="#eceff1" stroke="#737d82"/><text x="784.0" y="498" class="status status-badge suspected" fill="#394247">[S]</text>
<text x="811" y="497" class="cause">New operators rotate in</text>
<rect x="763" y="436" width="52" height="26" rx="13" fill="#fff2cc" stroke="#d69f2e"/><text x="789.0" y="454" class="status status-badge selected" fill="#664b11">[V?]</text>
<text x="811" y="453" class="cause">Training check missing</text>
<line x1="730" y1="380" x2="875" y2="205" stroke="#6f8580" stroke-width="3" stroke-linecap="round"/>
<rect x="807" y="163" width="136" height="34" rx="17" fill="#427e78" stroke="#427e78"/><text x="875" y="185" class="branch" text-anchor="middle">Environment</text>
<rect x="881" y="204" width="52" height="26" rx="13" fill="#fff2cc" stroke="#d69f2e"/><text x="907.0" y="222" class="status status-badge selected" fill="#664b11">[V?]</text>
<text x="929" y="221" class="cause">Mixed SKU paperwork</text>
<rect x="881" y="248" width="42" height="26" rx="13" fill="#eceff1" stroke="#737d82"/><text x="902.0" y="266" class="status status-badge suspected" fill="#394247">[S]</text>
<text x="929" y="265" class="cause">Crowded pack table</text>
<line x1="847" y1="380" x2="992" y2="555" stroke="#6f8580" stroke-width="3" stroke-linecap="round"/>
<rect x="924" y="613" width="136" height="34" rx="17" fill="#427e78" stroke="#427e78"/><text x="992" y="635" class="branch" text-anchor="middle">Measurement</text>
<rect x="998" y="480" width="42" height="26" rx="13" fill="#f6e6e2" stroke="#ad5b4d"/><text x="1019.0" y="498" class="status status-badge rejected" fill="#75342a">[X]</text>
<text x="1046" y="497" class="cause">Audit form mismatch</text>
<rect x="998" y="436" width="42" height="26" rx="13" fill="#eceff1" stroke="#737d82"/><text x="1019.0" y="454" class="status status-badge suspected" fill="#394247">[S]</text>
<text x="1046" y="453" class="cause">Defect codes unclear</text>
<rect x="76" y="640" width="705" height="92" rx="12" fill="#f8f9f7" stroke="#c5ccc7"/>
<text x="98" y="668" font-size="15" font-weight="700">Status badges</text>
<rect x="100" y="687" width="42" height="26" rx="13" fill="#eceff1" stroke="#737d82"/><text x="121.0" y="705" class="status status-badge suspected" fill="#394247">[S]</text>
<text x="162" y="705" class="small">Suspected</text>
<rect x="262" y="687" width="52" height="26" rx="13" fill="#fff2cc" stroke="#d69f2e"/><text x="288.0" y="705" class="status status-badge selected" fill="#664b11">[V?]</text>
<text x="324" y="705" class="small">Selected for verification</text>
<rect x="424" y="687" width="42" height="26" rx="13" fill="#e2f1e8" stroke="#4a9160"/><text x="445.0" y="705" class="status status-badge verified" fill="#215c32">[V]</text>
<text x="486" y="705" class="small">Verified</text>
<rect x="586" y="687" width="42" height="26" rx="13" fill="#f6e6e2" stroke="#ad5b4d"/><text x="607.0" y="705" class="status status-badge rejected" fill="#75342a">[X]</text>
<text x="648" y="705" class="small">Rejected</text>
<rect x="860" y="620" width="500" height="92" rx="12" fill="#f8f9f7" stroke="#c5ccc7"/><text x="882" y="650" font-size="15" font-weight="700">Review note</text><text x="882" y="676" class="small">Use short cause labels on the diagram; details stay in the verification plan.</text><text x="882" y="696" class="small">Synthetic QCC demo; not project evidence.</text>
</svg>