<svg xmlns="http://www.w3.org/2000/svg" width="1600" height="1120" viewBox="0 0 1600 1120" role="img" aria-label="QCC Toolkit Python-generated Fishbone Diagram" data-layout="fixed-lanes" data-visible-causes-per-branch="2">
<title>QCC Toolkit Python-generated Fishbone Diagram</title>
<desc>Clean static SVG Fishbone diagram with short cause labels; causes remain hypotheses until verified.</desc>
<style>
text{font-family:Arial,Helvetica,sans-serif;fill:#23313a}
.title{font-size:28px;font-weight:700}
.subtitle{font-size:14px;fill:#667178}
.branch{font-size:13px;font-weight:700;fill:#fff}
.cause{font-size:15px}
.small{font-size:12px;fill:#5f6b72}
.status{font-size:11px;font-weight:700;text-anchor:middle}
</style>
<rect x="0" y="0" width="1600" height="1120" fill="#ffffff"/>
<text x="72" y="64" class="title">Python-generated Fishbone Diagram</text>
<text x="72" y="92" class="subtitle">Clean static SVG: centered fishbone composition, short cause labels, and details in the verification plan.</text>
<line x1="150" y1="520" x2="1120" y2="520" stroke="#2f6f69" stroke-width="5" stroke-linecap="round"/>
<g data-effect="Packing label defects increased on Line 2"><rect x="1162" y="450" width="300" height="138" rx="14" fill="#e8f1ef" stroke="#2f6f69" stroke-width="2"/><text x="1188" y="492" font-size="18" font-weight="700"><tspan x="1188" dy="0">Packing label defects</tspan><tspan x="1188" dy="24">increased on Line 2</tspan></text></g>
<line x1="275" y1="520" x2="300" y2="355" stroke="#6f8580" stroke-width="3" stroke-linecap="round"/>
<g data-label-box="232,338,136,34" class="branch-label"><rect x="232" y="338" width="136" height="34" rx="17" fill="#427e78" stroke="#427e78"/><text x="300" y="360" class="branch" text-anchor="middle">Method</text></g>
<g data-lane="top" data-branch="Method">
<g data-box="110,130,260,66" class="cause-box"><rect x="110" y="130" width="260" height="66" rx="12" fill="#f8f9f7" stroke="#c5ccc7"/><rect x="126" y="150" width="42" height="26" rx="13" fill="#eceff1" stroke="#737d82"/><text x="147.0" y="168" class="status status-badge suspected" fill="#394247">[S]</text><text x="178" y="157" class="cause"><tspan x="178" dy="0">Late label check</tspan></text></g>
<g data-box="110,218,260,66" class="cause-box"><rect x="110" y="218" width="260" height="66" rx="12" fill="#f8f9f7" stroke="#c5ccc7"/><rect x="126" y="238" width="52" height="26" rx="13" fill="#fff2cc" stroke="#d69f2e"/><text x="152.0" y="256" class="status status-badge selected" fill="#664b11">[V?]</text><text x="178" y="245" class="cause"><tspan x="178" dy="0">Missing check step</tspan></text></g>
</g>
<line x1="275" y1="520" x2="300" y2="655" stroke="#6f8580" stroke-width="3" stroke-linecap="round"/>
<g data-label-box="232,638,136,34" class="branch-label"><rect x="232" y="638" width="136" height="34" rx="17" fill="#427e78" stroke="#427e78"/><text x="300" y="660" class="branch" text-anchor="middle">Machine</text></g>
<g data-lane="bottom" data-branch="Machine">
<g data-box="110,700,260,66" class="cause-box"><rect x="110" y="700" width="260" height="66" rx="12" fill="#f8f9f7" stroke="#c5ccc7"/><rect x="126" y="720" width="52" height="26" rx="13" fill="#fff2cc" stroke="#d69f2e"/><text x="152.0" y="738" class="status status-badge selected" fill="#664b11">[V?]</text><text x="178" y="727" class="cause"><tspan x="178" dy="0">Scanner warning hidden</tspan></text></g>
<g data-box="110,788,260,66" class="cause-box"><rect x="110" y="788" width="260" height="66" rx="12" fill="#f8f9f7" stroke="#c5ccc7"/><rect x="126" y="808" width="42" height="26" rx="13" fill="#eceff1" stroke="#737d82"/><text x="147.0" y="826" class="status status-badge suspected" fill="#394247">[S]</text><text x="178" y="815" class="cause"><tspan x="178" dy="0">Printer alert unclear</tspan></text></g>
</g>
<line x1="585" y1="520" x2="610" y2="355" stroke="#6f8580" stroke-width="3" stroke-linecap="round"/>
<g data-label-box="542,338,136,34" class="branch-label"><rect x="542" y="338" width="136" height="34" rx="17" fill="#427e78" stroke="#427e78"/><text x="610" y="360" class="branch" text-anchor="middle">Material</text></g>
<g data-lane="top" data-branch="Material">
<g data-box="420,130,260,66" class="cause-box"><rect x="420" y="130" width="260" height="66" rx="12" fill="#f8f9f7" stroke="#c5ccc7"/><rect x="436" y="150" width="42" height="26" rx="13" fill="#eceff1" stroke="#737d82"/><text x="457.0" y="168" class="status status-badge suspected" fill="#394247">[S]</text><text x="488" y="157" class="cause"><tspan x="488" dy="0">Similar roll colors</tspan></text></g>
<g data-box="420,218,260,66" class="cause-box"><rect x="420" y="218" width="260" height="66" rx="12" fill="#f8f9f7" stroke="#c5ccc7"/><rect x="436" y="238" width="42" height="26" rx="13" fill="#eceff1" stroke="#737d82"/><text x="457.0" y="256" class="status status-badge suspected" fill="#394247">[S]</text><text x="488" y="245" class="cause"><tspan x="488" dy="0">Mixed label stock</tspan></text></g>
</g>
<line x1="585" y1="520" x2="610" y2="655" stroke="#6f8580" stroke-width="3" stroke-linecap="round"/>
<g data-label-box="542,638,136,34" class="branch-label"><rect x="542" y="638" width="136" height="34" rx="17" fill="#427e78" stroke="#427e78"/><text x="610" y="660" class="branch" text-anchor="middle">People</text></g>
<g data-lane="bottom" data-branch="People">
<g data-box="420,700,260,66" class="cause-box"><rect x="420" y="700" width="260" height="66" rx="12" fill="#f8f9f7" stroke="#c5ccc7"/><rect x="436" y="720" width="42" height="26" rx="13" fill="#eceff1" stroke="#737d82"/><text x="457.0" y="738" class="status status-badge suspected" fill="#394247">[S]</text><text x="488" y="727" class="cause"><tspan x="488" dy="0">New operators rotate</tspan><tspan x="488" dy="20">in</tspan></text></g>
<g data-box="420,788,260,66" class="cause-box"><rect x="420" y="788" width="260" height="66" rx="12" fill="#f8f9f7" stroke="#c5ccc7"/><rect x="436" y="808" width="52" height="26" rx="13" fill="#fff2cc" stroke="#d69f2e"/><text x="462.0" y="826" class="status status-badge selected" fill="#664b11">[V?]</text><text x="488" y="815" class="cause"><tspan x="488" dy="0">Training check missing</tspan></text></g>
</g>
<line x1="895" y1="520" x2="920" y2="355" stroke="#6f8580" stroke-width="3" stroke-linecap="round"/>
<g data-label-box="852,338,136,34" class="branch-label"><rect x="852" y="338" width="136" height="34" rx="17" fill="#427e78" stroke="#427e78"/><text x="920" y="360" class="branch" text-anchor="middle">Environment</text></g>
<g data-lane="top" data-branch="Environment">
<g data-box="730,130,260,66" class="cause-box"><rect x="730" y="130" width="260" height="66" rx="12" fill="#f8f9f7" stroke="#c5ccc7"/><rect x="746" y="150" width="52" height="26" rx="13" fill="#fff2cc" stroke="#d69f2e"/><text x="772.0" y="168" class="status status-badge selected" fill="#664b11">[V?]</text><text x="798" y="157" class="cause"><tspan x="798" dy="0">Mixed SKU paperwork</tspan></text></g>
<g data-box="730,218,260,66" class="cause-box"><rect x="730" y="218" width="260" height="66" rx="12" fill="#f8f9f7" stroke="#c5ccc7"/><rect x="746" y="238" width="42" height="26" rx="13" fill="#eceff1" stroke="#737d82"/><text x="767.0" y="256" class="status status-badge suspected" fill="#394247">[S]</text><text x="798" y="245" class="cause"><tspan x="798" dy="0">Crowded pack table</tspan></text></g>
</g>
<line x1="895" y1="520" x2="920" y2="655" stroke="#6f8580" stroke-width="3" stroke-linecap="round"/>
<g data-label-box="852,638,136,34" class="branch-label"><rect x="852" y="638" width="136" height="34" rx="17" fill="#427e78" stroke="#427e78"/><text x="920" y="660" class="branch" text-anchor="middle">Measurement</text></g>
<g data-lane="bottom" data-branch="Measurement">
<g data-box="730,700,260,66" class="cause-box"><rect x="730" y="700" width="260" height="66" rx="12" fill="#f8f9f7" stroke="#c5ccc7"/><rect x="746" y="720" width="42" height="26" rx="13" fill="#f6e6e2" stroke="#ad5b4d"/><text x="767.0" y="738" class="status status-badge rejected" fill="#75342a">[X]</text><text x="798" y="727" class="cause"><tspan x="798" dy="0">Audit form mismatch</tspan></text></g>
<g data-box="730,788,260,66" class="cause-box"><rect x="730" y="788" width="260" height="66" rx="12" fill="#f8f9f7" stroke="#c5ccc7"/><rect x="746" y="808" width="42" height="26" rx="13" fill="#eceff1" stroke="#737d82"/><text x="767.0" y="826" class="status status-badge suspected" fill="#394247">[S]</text><text x="798" y="815" class="cause"><tspan x="798" dy="0">Defect codes unclear</tspan></text></g>
</g>
<rect x="76" y="960" width="705" height="92" rx="12" fill="#f8f9f7" stroke="#c5ccc7"/>
<text x="98" y="988" font-size="15" font-weight="700">Status badges</text>
<rect x="100" y="1007" width="42" height="26" rx="13" fill="#eceff1" stroke="#737d82"/><text x="121.0" y="1025" class="status status-badge suspected" fill="#394247">[S]</text>
<text x="162" y="1025" class="small">Suspected</text>
<rect x="262" y="1007" width="52" height="26" rx="13" fill="#fff2cc" stroke="#d69f2e"/><text x="288.0" y="1025" class="status status-badge selected" fill="#664b11">[V?]</text>
<text x="324" y="1025" class="small">Selected for verification</text>
<rect x="424" y="1007" width="42" height="26" rx="13" fill="#e2f1e8" stroke="#4a9160"/><text x="445.0" y="1025" class="status status-badge verified" fill="#215c32">[V]</text>
<text x="486" y="1025" class="small">Verified</text>
<rect x="586" y="1007" width="42" height="26" rx="13" fill="#f6e6e2" stroke="#ad5b4d"/><text x="607.0" y="1025" class="status status-badge rejected" fill="#75342a">[X]</text>
<text x="648" y="1025" class="small">Rejected</text>
<rect x="900" y="940" width="500" height="92" rx="12" fill="#f8f9f7" stroke="#c5ccc7"/><text x="922" y="970" font-size="15" font-weight="700">Review note</text><text x="922" y="996" class="small">Use short cause labels on the diagram; details stay in the verification plan.</text><text x="922" y="1016" class="small">Synthetic QCC demo; not project evidence.</text>
</svg>